<?xml version="1.0" encoding="UTF-8" standalone="no"?>
<svg
        xmlnsDc="http://purl.org/dc/elements/1.1/"
        xmlnsCc="http://creativecommons.org/ns#"
        xmlnsRdf="http://www.w3.org/1999/02/22-rdf-syntax-ns#"
        xmlnsSvg="http://www.w3.org/2000/svg"
        xmlns="http://www.w3.org/2000/svg"
        xmlnsXlink="http://www.w3.org/1999/xlink"
        xmlnsSodipodi="http://sodipodi.sourceforge.net/DTD/sodipodi-0.dtd"
        xmlnsInkscape="http://www.inkscape.org/namespaces/inkscape"
        sodipodiDocname="feather9.svg"
        inkscapeVersion="1.0rc1 (09960d6, 2020-04-09)"
        id="svg856"
        version="1.1"
        viewBox="0 0 210 297"
        height="297mm"
        width="210mm">
    <g
            id="layer1"
            inkscapeGroupmode="layer"
            inkscapeLabel="Layer 1">
        <path
                style="fill: #999999;fill-opacity:1;fill-rule:evenodd;stroke:none;stroke-width:0.0468355;stroke-linecap:butt;stroke-linejoin:miter;stroke-miterlimit:4;stroke-dasharray:none;stroke-opacity:1"
                d="m 109.53472,7.0159363 c -2.27852,0.881621 -4.20395,3.8405217 -5.53308,10.3152627 1.21844,1.623262 2.78858,3.375815 2.98876,4.623696 -1.08892,-0.05501 -2.05266,-0.897574 -3.03609,-1.6144 l -1.74072,6.725397 c 1.59288,1.828905 3.69424,3.692249 4.04646,5.435214 l -2.96635,-1.422703 c 0.4417,3.792726 0.54714,7.381698 -0.85696,10.050422 3.48864,3.716825 6.47756,7.418566 6.85068,11.049934 -2.69321,-3.231576 -5.38762,-6.046856 -8.08597,-7.120235 0.35173,4.521769 -1.226146,8.841442 -0.7728,11.923061 0.44815,3.046079 1.91806,5.487358 2.92292,8.183271 -1.61902,2.910171 -3.997861,5.955775 -3.617404,7.246906 3.214894,4.608924 8.075744,9.022118 12.366434,13.503533 -3.74406,-1.806317 -7.13575,-4.365446 -10.52128,-6.940652 1.10837,3.221223 1.99395,6.432753 1.86265,9.602436 -1.46917,-2.359075 -2.77407,-2.979754 -4.096896,-3.784504 0.322383,2.56387 0.714906,5.093186 0.442646,7.943381 -1.5106,1.528962 -2.182291,2.969427 -2.015939,4.323197 0.820221,5.558217 4.457939,10.091077 8.769019,14.378737 -3.72962,-1.12627 -6.646031,-3.71564 -9.444659,-6.51635 0.874934,4.17626 3.188229,8.49469 5.931029,12.85547 -2.35277,-2.28861 -4.490126,-4.95995 -6.535607,-7.79393 0.999301,4.25662 0.719017,8.60049 0.09517,12.96689 -0.08739,2.43838 -0.121751,5.10078 0.698506,7.82332 2.451624,8.13767 5.509681,16.18391 8.513411,24.41221 0.21713,0.59434 0.39745,0.99107 0.25106,1.45843 l -5.23814,16.77093 2.54652,4.45819 7.48993,-29.48977 c 0.59863,-2.35698 1.41128,-7.56407 4.06426,-9.31114 4.99351,-3.28839 9.51572,-8.2507 12.41725,-23.12316 -2.40076,1.72043 -4.77723,4.30591 -7.15164,6.95478 1.27349,-5.71929 4.63366,-8.35009 8.06295,-10.87762 l 0.035,-2.8954 c -4.94681,3.16372 -7.86016,8.40905 -10.65258,13.77728 1.48067,-6.49901 3.97901,-12.82738 11.27041,-18.35394 1.04297,-4.05001 1.87666,-8.213117 2.0928,-12.18475 -3.58337,3.435343 -7.14364,7.196973 -10.69201,11.12604 2.63027,-5.498707 5.13565,-10.985982 12.32842,-16.945129 1.81938,-3.488447 1.42765,-7.282021 0.68249,-11.126199 -2.66208,1.811245 -5.34137,5.392694 -8.01991,8.901462 0.0862,-3.95247 3.35815,-8.168411 7.27594,-12.438915 0.0231,-0.951306 -0.63803,-1.58254 0.12358,-2.873812 1.50757,-2.555694 2.72298,-4.748808 0.15122,-8.105671 -1.51235,-1.974053 -0.32262,-3.913576 -0.0525,-5.747938 0.23795,-1.615731 -0.36796,-3.274068 -1.16316,-4.689075 -3.56473,3.950837 -6.25681,8.796765 -8.79084,13.806453 0.2731,-5.12207 2.52584,-10.964682 9.18183,-18.409928 l -1.07491,-3.253779 c -2.04088,1.34414 -3.67068,3.074798 -5.41852,4.693315 1.52568,-3.057517 3.72028,-6.230802 5.98538,-9.414648 -0.53377,-4.571573 -2.09591,-9.260762 -3.32358,-13.912192 -2.13924,2.81883 -4.29423,5.624022 -6.84435,8.094948 0.81383,-3.764808 2.7294,-7.37185 5.68612,-10.828684 -1.75773,-5.101225 -4.09613,-8.286793 -6.84203,-10.129223 -2.64377,3.251402 -3.60365,6.791523 -4.09771,10.41211 -1.34326,-3.731788 -1.29824,-7.780257 1.10231,-12.3677857 -2.73894,-1.830772 -5.37138,-3.0263 -7.6499,-2.144669 z m 3.80984,19.9364257 c 0.42984,-0.08381 1.00819,0.43435 1.10164,0.992419 5.25546,31.382041 6.15256,65.986312 -2.49143,107.633309 l -2.70756,1.5307 c 7.81002,-36.95815 8.47978,-73.092576 3.66249,-108.604772 -0.14348,-1.057148 0.10053,-1.486457 0.43486,-1.551656 z"
                id="path4147-8-5"
                inkscapeConnector-curvature="0"
                sodipodiNodetypes="scccccccccscccccccccccccsscccssccccccccccccsssccccccccccccscsccsc" />
    </g>
</svg>
