<?xml version="1.0" encoding="UTF-8" standalone="no"?>
<svg
        xmlnsDc="http://purl.org/dc/elements/1.1/"
        xmlnsCc="http://creativecommons.org/ns#"
        xmlnsRdf="http://www.w3.org/1999/02/22-rdf-syntax-ns#"
        xmlnsSvg="http://www.w3.org/2000/svg"
        xmlns="http://www.w3.org/2000/svg"
        xmlnsXlink="http://www.w3.org/1999/xlink"
        xmlnsSodipodi="http://sodipodi.sourceforge.net/DTD/sodipodi-0.dtd"
        xmlnsInkscape="http://www.inkscape.org/namespaces/inkscape"
        sodipodiDocname="feather2.svg"
        inkscapeVersion="1.0rc1 (09960d6, 2020-04-09)"
        id="svg856"
        version="1.1"
        viewBox="0 0 210 297"
        height="297mm"
        width="210mm">
    <g
            id="layer1"
            inkscapeGroupmode="layer"
            inkscapeLabel="Layer 1">
        <path
                style="fill: #999999;fill-opacity:1;fill-rule:evenodd;stroke:none;stroke-width:0.0468356;stroke-linecap:butt;stroke-linejoin:miter;stroke-miterlimit:4;stroke-dasharray:none;stroke-opacity:1"
                d="m 152.70815,30.560391 c -2.44264,0.04915 -5.26394,2.171073 -8.72741,7.800749 0.58977,1.942097 1.46581,4.12597 1.22712,5.367067 -1.00443,-0.424116 -1.62188,-1.545501 -2.30084,-2.555443 l -3.93596,5.724445 c 0.87129,2.263403 2.20862,4.733081 1.94347,6.491399 l -2.30086,-2.351455 c -0.88213,3.715067 -2.01058,7.123652 -4.24273,9.15121 2.00703,4.685857 3.54962,9.186626 2.65824,12.726611 -1.42553,-3.957821 -2.99457,-7.524865 -5.16307,-9.4564 -1.21604,4.369368 -4.17615,7.888875 -4.80411,10.939705 -0.62072,3.015648 -0.0744,5.812445 -0.0522,8.689456 -2.51672,2.180929 -5.79376,4.229249 -5.87783,5.572639 1.44466,5.430525 4.50295,11.240079 7.00217,16.918736 -2.90049,-2.97793 -5.21236,-6.542744 -7.51294,-10.120571 -0.0602,3.40604 -0.32643,6.726781 -1.53391,9.660401 -0.57371,-2.71929 -1.58764,-3.74884 -2.55544,-4.95749 -0.57396,2.51951 -1.07019,5.03054 -2.30085,7.61573 -1.94243,0.9201 -3.0663,2.04396 -3.37299,3.37299 -1.13025,5.50353 0.73775,11.00719 3.32238,16.51074 -3.1195,-2.33395 -4.97441,-5.76463 -6.64636,-9.35362 -0.60619,4.22364 0.0906,9.07283 1.17651,14.10871 -1.42812,-2.95528 -2.52293,-6.19654 -3.47578,-9.5592 -0.51682,4.34169 -2.2659,8.32772 -4.34551,12.21743 -0.916087,2.26145 -1.858974,4.75152 -2.019381,7.59042 -0.479467,8.48541 -0.35781,17.09232 -0.34947,25.85173 6.9e-4,0.63276 0.0345,1.06724 -0.262497,1.45642 l -10.658239,13.96796 0.868158,5.06029 17.124329,-25.14962 c 1.36866,-2.01008 3.91323,-6.62521 7.00375,-7.35954 5.81706,-1.38219 11.76375,-4.49855 19.57698,-17.48171 -2.8444,0.79556 -5.96183,2.41232 -9.09902,4.08934 3.1528,-4.93881 7.21012,-6.26171 11.29707,-7.46392 l 1.02313,-2.70883 c -5.73054,1.28102 -10.26219,5.21359 -14.72226,9.30301 3.61417,-5.60066 8.12626,-10.69289 16.86814,-13.39235 2.36525,-3.44904 4.57254,-7.07595 6.13401,-10.73414 -4.54222,2.00258 -9.17433,4.31968 -13.85253,6.79818 4.35233,-4.26749 8.58337,-8.56695 17.3805,-11.70664 2.90278,-2.65579 3.83216,-6.35456 4.44672,-10.22177 -3.12101,0.79153 -6.86366,3.24062 -10.58073,5.62167 1.43286,-3.68461 5.94939,-6.52724 11.09151,-9.200234 0.34711,-0.886027 -0.0583,-1.705327 1.09903,-2.658237 2.29075,-1.88595 4.18294,-3.531105 2.9144,-7.565115 -0.74598,-2.37226 1.03532,-3.78791 1.91659,-5.419248 0.77622,-1.436904 0.77408,-3.202453 0.51077,-4.804107 -4.70102,2.493361 -8.88815,6.126296 -12.98278,9.967175 2.00849,-4.719766 6.12365,-9.439544 14.92466,-14.159305 l 0.10279,-3.425187 c -2.37753,0.565053 -4.50096,1.633915 -6.69696,2.557028 2.47941,-2.351313 5.62699,-4.582626 8.84442,-6.799758 1.06199,-4.478432 1.19784,-9.419115 1.63511,-14.209908 -2.97433,1.917168 -5.95879,3.816134 -9.20023,5.265853 2.0524,-3.259415 5.08612,-5.993765 9.04683,-8.230864 0.093,-5.394759 -1.01485,-9.187995 -2.965,-11.858466 -3.59638,2.151099 -5.70917,5.149411 -7.41174,8.382682 0.0141,-3.966162 1.44102,-7.755078 5.26586,-11.2449 -1.94759,-2.657152 -4.01238,-4.680917 -6.45503,-4.631748 z m -3.23858,20.037148 c 0.4326,0.06826 0.79884,0.752978 0.69578,1.309351 -5.79476,31.286947 -16.78714,64.11112 -39.15394,100.29008 l -3.0678,0.51235 c 19.97945,-32.05811 32.96752,-65.784276 40.58664,-100.80243 0.22682,-1.042451 0.60286,-1.36243 0.93932,-1.309351 z"
                id="path4147"
                inkscapeConnector-curvature="0"
                sodipodiNodetypes="scccccccccscccccccccccccsscccssccccccccccccsssccccccccccccscsccsc" />
    </g>
</svg>
