<?xml version="1.0" encoding="UTF-8" standalone="no"?>
<svg
        xmlnsDc="http://purl.org/dc/elements/1.1/"
        xmlnsCc="http://creativecommons.org/ns#"
        xmlnsRdf="http://www.w3.org/1999/02/22-rdf-syntax-ns#"
        xmlnsSvg="http://www.w3.org/2000/svg"
        xmlns="http://www.w3.org/2000/svg"
        xmlnsXlink="http://www.w3.org/1999/xlink"
        xmlnsSodipodi="http://sodipodi.sourceforge.net/DTD/sodipodi-0.dtd"
        xmlnsInkscape="http://www.inkscape.org/namespaces/inkscape"
        sodipodiDocname="feather1.svg"
        inkscapeVersion="1.0rc1 (09960d6, 2020-04-09)"
        id="svg856"
        version="1.1"
        viewBox="0 0 210 297"
        height="297mm"
        width="210mm">
    <g
            id="layer1"
            inkscapeGroupmode="layer"
            inkscapeLabel="Layer 1">
        <path
                sodipodiNodetypes="scccccccccscccccccccccccsscccssccccccccccccsssccccccccccccscsccsc"
                inkscapeConnector-curvature="0"
                id="path4147-4"
                d="m 53.832856,32.147892 c 2.44263,0.04915 5.26393,2.171073 8.7274,7.800749 -0.58977,1.942097 -1.46581,4.12597 -1.22711,5.367067 1.00443,-0.424116 1.62188,-1.545501 2.30084,-2.555443 l 3.93596,5.724445 c -0.8713,2.263403 -2.20862,4.733081 -1.94347,6.491399 l 2.30085,-2.351455 c 0.88214,3.715067 2.01058,7.123652 4.24274,9.15121 -2.00704,4.685858 -3.54962,9.186627 -2.65825,12.726611 1.42553,-3.95782 2.99457,-7.524863 5.16307,-9.456398 1.21605,4.369366 4.17615,7.888874 4.80412,10.939703 0.62072,3.015649 0.0744,5.812446 0.0522,8.689456 2.51671,2.180929 5.79375,4.229248 5.87783,5.572639 -1.44466,5.430528 -4.50295,11.240085 -7.00218,16.918745 2.9005,-2.97793 5.21236,-6.54276 7.51295,-10.120577 0.0602,3.406047 0.32643,6.726787 1.5339,9.660407 0.57372,-2.7193 1.58764,-3.74884 2.55545,-4.9575 0.57396,2.51952 1.07018,5.03055 2.30085,7.61574 1.94243,0.9201 3.0663,2.04396 3.37299,3.37298 1.13025,5.50354 -0.73775,11.0072 -3.32238,16.51075 3.1195,-2.33395 4.97441,-5.76463 6.64636,-9.35362 0.60619,4.22364 -0.0906,9.07283 -1.17651,14.10871 1.42812,-2.95528 2.522934,-6.19654 3.475784,-9.5592 0.51682,4.34169 2.26591,8.32772 4.34553,12.21743 0.91609,2.26145 1.85897,4.75152 2.01938,7.59042 0.47947,8.48541 0.35781,17.09232 0.34947,25.85173 -6.9e-4,0.63276 -0.0345,1.06724 0.2625,1.45642 l 10.65824,13.96796 -0.86816,5.06029 -17.12435,-25.14962 c -1.368664,-2.01008 -3.913234,-6.62521 -7.003754,-7.35954 -5.81707,-1.38219 -11.76376,-4.49855 -19.57699,-17.48171 2.8444,0.79556 5.96184,2.41232 9.09902,4.08934 -3.15279,-4.93881 -7.21012,-6.26171 -11.29707,-7.46392 l -1.02312,-2.70883 c 5.73054,1.28102 10.26219,5.21359 14.72225,9.30301 -3.61416,-5.60066 -8.12625,-10.69289 -16.86814,-13.39235 -2.36524,-3.44904 -4.57254,-7.07595 -6.13401,-10.73414 4.54223,2.00258 9.17434,4.31968 13.85253,6.79818 -4.35233,-4.26749 -8.58336,-8.56695 -17.3805,-11.70664 -2.90277,-2.65579 -3.83215,-6.35456 -4.44672,-10.22177 3.12102,0.79153 6.86366,3.24062 10.58073,5.62167 -1.43285,-3.68461 -5.94939,-6.52725 -11.0915,-9.20024 -0.34712,-0.88602 0.0583,-1.705327 -1.09904,-2.658237 -2.29074,-1.88595 -4.18294,-3.53111 -2.91439,-7.565118 0.74598,-2.37226 -1.03532,-3.78791 -1.9166,-5.419246 -0.77621,-1.436905 -0.77408,-3.202454 -0.51077,-4.804109 4.70103,2.493362 8.88815,6.126298 12.98279,9.967175 -2.0085,-4.719765 -6.12366,-9.439543 -14.92467,-14.159304 l -0.10279,-3.425188 c 2.37754,0.565052 4.50097,1.633916 6.69696,2.557029 -2.47941,-2.351313 -5.62698,-4.582626 -8.84442,-6.799758 -1.06199,-4.478432 -1.19784,-9.419116 -1.6351,-14.209909 2.97432,1.917168 5.95879,3.816134 9.20022,5.265852 -2.05239,-3.259414 -5.08612,-5.993764 -9.04682,-8.230863 -0.093,-5.394759 1.01484,-9.187995 2.965,-11.858466 3.59637,2.151099 5.70916,5.149411 7.41173,8.382682 -0.0141,-3.966162 -1.44101,-7.755078 -5.26585,-11.2449 1.94759,-2.657152 4.01237,-4.680917 6.45502,-4.631748 z m 3.23858,20.037148 c -0.43261,0.06826 -0.79885,0.752978 -0.69578,1.309351 5.79475,31.286948 16.78714,64.111129 39.15394,100.290089 l 3.0678,0.51235 C 78.617946,122.23872 65.629876,88.512547 58.010746,53.494391 c -0.22682,-1.042451 -0.60285,-1.36243 -0.93931,-1.309351 z"
                style="fill: #999999;fill-opacity:1;fill-rule:evenodd;stroke:none;stroke-width:0.0468355;stroke-linecap:butt;stroke-linejoin:miter;stroke-miterlimit:4;stroke-dasharray:none;stroke-opacity:1" />
    </g>
</svg>
