<?xml version="1.0" encoding="UTF-8" standalone="no"?>
<svg
        xmlnsDc="http://purl.org/dc/elements/1.1/"
        xmlnsCc="http://creativecommons.org/ns#"
        xmlnsRdf="http://www.w3.org/1999/02/22-rdf-syntax-ns#"
        xmlnsSvg="http://www.w3.org/2000/svg"
        xmlns="http://www.w3.org/2000/svg"
        xmlnsXlink="http://www.w3.org/1999/xlink"
        xmlnsSodipodi="http://sodipodi.sourceforge.net/DTD/sodipodi-0.dtd"
        xmlnsInkscape="http://www.inkscape.org/namespaces/inkscape"
        sodipodiDocname="feather6.svg"
        inkscapeVersion="1.0rc1 (09960d6, 2020-04-09)"
        id="svg856"
        version="1.1"
        viewBox="0 0 210 297"
        height="297mm"
        width="210mm">
    <g
            id="layer1"
            inkscapeGroupmode="layer"
            inkscapeLabel="Layer 1">
        <path
                style="fill: #999999;fill-opacity:1;fill-rule:evenodd;stroke:none;stroke-width:0.0468355;stroke-linecap:butt;stroke-linejoin:miter;stroke-miterlimit:4;stroke-dasharray:none;stroke-opacity:1"
                d="m 76.503286,16.089045 c 2.429051,0.261852 5.054677,2.621593 8.014309,8.531708 -0.75679,1.883305 -1.819834,3.982516 -1.690211,5.239694 1.037572,-0.33496 1.750408,-1.398264 2.514806,-2.345187 l 3.422064,6.045703 c -1.065253,2.178851 -2.61273,4.522576 -2.501837,6.297313 l 2.497038,-2.141975 c 0.554993,3.777814 1.382061,7.271778 3.429014,9.486166 -2.407802,4.493102 -4.33678,8.8423 -3.757332,12.446501 1.765053,-3.818516 3.63901,-7.235235 5.967603,-8.970423 0.830607,4.458725 3.472695,8.22283 3.832382,11.316781 0.355517,3.058273 -0.432477,5.796813 -0.705337,8.66094 2.317038,2.391975 5.403085,4.718108 5.369765,6.063724 -1.91247,5.283955 -5.465445,10.80485 -8.450089,16.244079 3.149004,-2.713803 5.762749,-6.063566 8.366409,-9.427262 -0.23688,3.398326 -0.26109,6.729633 0.68611,9.757328 0.80854,-2.65894 1.90833,-3.596203 2.9778,-4.715903 0.35218,2.559946 0.62766,5.104669 1.62834,7.787284 1.85484,1.08589 2.87649,2.30343 3.06618,3.654124 0.64628,5.58112 -1.69429,10.90103 -4.74875,16.15838 3.31105,-2.05319 5.4579,-5.30915 7.43629,-8.73877 0.23577,4.26041 -0.881,9.03042 -2.40169,13.95249 1.68026,-2.81956 3.0534,-5.95307 4.2957,-9.21989 0.13645,4.37021 1.53146,8.49352 3.26415,12.54968 0.71551,2.33268 1.43777,4.89546 1.35015,7.73753 -0.26191,8.49491 -1.13325,17.05847 -1.90499,25.78382 -0.0559,0.63028 -0.12738,1.06017 0.13457,1.47375 l 9.40029,14.84374 -1.30589,4.96537 -14.86723,-26.5464 c -1.18826,-2.12172 -3.32092,-6.94106 -6.33567,-7.94196 -5.674467,-1.88392 -11.32691,-5.50671 -17.978852,-19.12143 2.764239,1.04044 5.728906,2.92275 8.707986,4.86681 -2.710347,-5.1948 -6.636939,-6.86629 -10.603557,-8.42012 l -0.783137,-2.78769 c 5.597085,1.77559 9.768745,6.08816 13.855409,10.55073 -3.11227,-5.89434 -7.163373,-11.36045 -15.636724,-14.81154 -2.055636,-3.64206 -3.93843,-7.44755 -5.175126,-11.22792 4.350409,2.39085 8.762944,5.10284 13.207317,7.97965 -3.963832,-4.63059 -7.804039,-9.28245 -16.294061,-13.176914 -2.660256,-2.89869 -3.26373,-6.664387 -3.538912,-10.570444 3.040157,1.060533 6.555103,3.826496 10.050507,6.522444 -1.106263,-3.795465 -5.357865,-7.02092 -10.24744,-10.131913 -0.268578,-0.912902 0.206706,-1.69375 -0.863178,-2.743902 -2.117651,-2.078425 -3.859265,-3.882241 -2.243955,-7.790339 0.949898,-2.29822 -0.701242,-3.863734 -1.436988,-5.56567 -0.648022,-1.499089 -0.492023,-3.257734 -0.09012,-4.830345 4.465829,2.893596 8.320385,6.877639 12.064689,11.060776 C 76.891585,69.962701 73.20344,64.902224 64.847276,59.433364 l 0.196126,-3.421112 c 2.319245,0.770118 4.341436,2.019983 6.448615,3.130977 -2.265044,-2.558461 -5.206165,-5.055612 -8.218126,-7.544725 -0.667628,-4.553949 -0.372352,-9.487672 -0.390403,-14.298345 2.79591,2.169102 5.603517,4.320956 8.706261,6.047666 -1.760502,-3.425888 -4.544375,-6.41424 -8.295027,-8.988024 0.377538,-5.382336 1.811765,-9.064583 3.987251,-11.554924 3.395205,2.456357 5.238635,5.627402 6.652927,8.996758 0.331627,-3.952298 -0.759626,-7.85116 -4.265753,-11.661059 2.171764,-2.477298 4.40507,-4.313404 6.834139,-4.051531 z m 1.479903,20.243162 c -0.436913,0.0303 -0.861436,0.680488 -0.807249,1.243727 3.045862,31.672938 11.135605,65.330276 30.26407,103.320966 l 3.01147,0.77778 C 93.342126,107.99723 83.342911,73.267394 78.804808,37.718442 78.669706,36.660189 78.322995,36.308654 77.983189,36.332207 Z"
                id="path4147-4-8"
                inkscapeConnector-curvature="0"
                sodipodiNodetypes="scccccccccscccccccccccccsscccssccccccccccccsssccccccccccccscsccsc" />
    </g>
</svg>
