<?xml version="1.0" encoding="UTF-8" standalone="no"?>
<svg
        xmlnsDc="http://purl.org/dc/elements/1.1/"
        xmlnsCc="http://creativecommons.org/ns#"
        xmlnsRdf="http://www.w3.org/1999/02/22-rdf-syntax-ns#"
        xmlnsSvg="http://www.w3.org/2000/svg"
        xmlns="http://www.w3.org/2000/svg"
        xmlnsXlink="http://www.w3.org/1999/xlink"
        xmlnsSodipodi="http://sodipodi.sourceforge.net/DTD/sodipodi-0.dtd"
        xmlnsInkscape="http://www.inkscape.org/namespaces/inkscape"
        sodipodiDocname="feather3.svg"
        inkscapeVersion="1.0rc1 (09960d6, 2020-04-09)"
        id="svg856"
        version="1.1"
        viewBox="0 0 210 297"
        height="297mm"
        width="210mm">
    <g
            id="layer1"
            inkscapeGroupmode="layer"
            inkscapeLabel="Layer 1">
        <path
                style="fill: #999999;fill-opacity:1;fill-rule:evenodd;stroke:none;stroke-width:0.0446101;stroke-linecap:butt;stroke-linejoin:miter;stroke-miterlimit:4;stroke-dasharray:none;stroke-opacity:1"
                d="m 178.15563,55.621359 c -1.27305,-0.743937 -2.65502,-1.206345 -4.104,-1.498095 l -0.2583,4.303245 c -0.77072,-0.05833 -1.69034,-0.913324 -2.77249,-2.635525 -8.04607,1.44181 -10.42065,7.3355 -11.37895,14.340859 2.63777,2.924863 5.09319,5.618579 7.12183,7.769347 -1.72883,-0.680658 -3.83966,-1.791989 -6.33896,-3.341515 -0.26871,3.741669 0.0624,7.783377 -2.86361,10.192431 3.86142,7.810166 7.13307,15.584624 4.14172,22.983464 -1.38956,-5.24629 -2.37122,-10.344077 -5.17204,-16.104928 -2.5812,13.911038 -9.83371,25.408208 -19.41778,35.699078 1.45769,4.33781 2.26948,8.25616 2.26291,11.6426 -2.07912,-4.82156 -4.44738,-8.8269 -8.19309,-8.94438 1.87293,6.54787 2.52041,13.14596 -2.06172,19.95844 0.27733,-4.24201 0.46251,-8.42342 0.56854,-12.55233 -1.56863,1.61277 -3.19841,4.5633 -4.84986,4.47503 -8.70091,-0.46502 -12.25637,2.44593 -13.69324,7.39924 5.73095,-6.38121 13.82721,0.3604 6.89409,8.98923 0.0937,-1.45174 -0.026,-2.76201 -0.0929,-4.10772 -0.60518,2.9442 -0.74572,6.43437 -3.33057,7.69666 l -13.95165,6.81352 -1.278074,3.3162 14.483064,-7.4598 c 0.93321,-0.48064 1.65804,-0.46532 2.13609,-0.11808 11.78276,8.55781 19.60716,6.79451 26.57878,1.74987 -3.73811,-0.67213 -7.55219,-1.27717 -10.45028,-2.69418 18.77062,-0.65173 30.56104,-8.22239 39.11507,-18.99965 -3.95059,0.95799 -7.78545,1.50807 -11.32151,1.01691 20.37063,-7.20255 23.35152,-16.35101 24.46422,-25.70868 -2.75909,2.23245 -3.46554,3.66287 -9.15316,7.03946 3.87489,-7.00128 8.23502,-12.91268 14.12634,-15.37913 -6.41645,0.036 -10.60707,6.80785 -14.51371,8.47691 7.56018,-8.87246 13.95722,-17.72863 16.10837,-25.285738 -2.70968,3.009681 -5.29098,6.250078 -8.49234,8.374068 6.14637,-11.168373 6.00236,-20.787457 6.14748,-30.478363 -1.34304,4.220608 -2.55938,8.693683 -5.32117,10.044939 3.09047,-7.728545 2.85249,-14.96683 0.38736,-21.878221 -0.84745,2.162798 -1.51757,4.595196 -3.22749,5.451714 l 1.15206,-7.366522 c -1.01279,-1.413164 -2.17783,-2.436645 -3.45102,-3.180333 z m -1.85235,22.990769 c 0.2035,0.04904 0.37612,0.42053 0.42005,0.905155 3.12674,34.482217 -11.64973,62.840727 -54.4739,81.130177 l 2.31922,-3.19163 c 26.79489,-13.15883 36.41797,-23.55567 31.21727,-46.21957 -0.249,-1.08514 -0.0685,-1.32846 0.40412,-0.5615 3.87333,6.28463 4.57742,14.08719 0.84042,24.02019 12.71584,-14.60235 19.61948,-32.56138 18.66719,-55.055033 0.16734,-0.804162 0.40207,-1.076811 0.60563,-1.027789 z"
                id="path4152"
                inkscapeConnector-curvature="0" />
    </g>
</svg>
