<?xml version="1.0" encoding="UTF-8" standalone="no"?>
<svg
        xmlnsDc="http://purl.org/dc/elements/1.1/"
        xmlnsCc="http://creativecommons.org/ns#"
        xmlnsRdf="http://www.w3.org/1999/02/22-rdf-syntax-ns#"
        xmlnsSvg="http://www.w3.org/2000/svg"
        xmlns="http://www.w3.org/2000/svg"
        xmlnsXlink="http://www.w3.org/1999/xlink"
        xmlnsSodipodi="http://sodipodi.sourceforge.net/DTD/sodipodi-0.dtd"
        xmlnsInkscape="http://www.inkscape.org/namespaces/inkscape"
        sodipodiDocname="featherA.svg"
        inkscapeVersion="1.0rc1 (09960d6, 2020-04-09)"
        id="svg856"
        version="1.1"
        viewBox="0 0 210 297"
        height="297mm"
        width="210mm">
    <g
            id="layer1"
            inkscapeGroupmode="layer"
            inkscapeLabel="Layer 1">
        <path
                sodipodiNodetypes="scccccccccscccccccccccccsscccssccccccccccccsssccccccccccccscsccsc"
                inkscapeConnector-curvature="0"
                id="path4147-4-8-9"
                d="m 101.86049,6.4023763 c 2.27851,0.881611 4.20394,3.8405117 5.53307,10.3152527 -1.21844,1.623252 -2.78857,3.375796 -2.98875,4.623697 1.08892,-0.05501 2.05266,-0.897574 3.03609,-1.6144 l 1.74072,6.725406 c -1.59289,1.828891 -3.69424,3.692239 -4.04646,5.435206 l 2.96635,-1.422708 c -0.44169,3.792733 -0.54714,7.3817 0.85697,10.050428 -3.48866,3.716818 -6.47756,7.418564 -6.8507,11.049927 2.69322,-3.231574 5.38763,-6.046854 8.08598,-7.120233 -0.35173,4.521769 1.22614,8.841441 0.7728,11.923065 -0.44815,3.046075 -1.91806,5.487357 -2.92292,8.18327 1.61901,2.910165 3.99785,5.955768 3.6174,7.246908 -3.21489,4.608925 -8.07574,9.022118 -12.366444,13.503528 3.744074,-1.806311 7.135754,-4.365444 10.521294,-6.940645 -1.10837,3.221219 -1.99395,6.43275 -1.86266,9.602433 1.46918,-2.359074 2.77407,-2.979755 4.09691,-3.784503 -0.32239,2.56387 -0.71492,5.093183 -0.44264,7.943384 1.51059,1.52896 2.18229,2.969431 2.01594,4.323201 -0.82023,5.558217 -4.45795,10.091077 -8.76903,14.378727 3.72962,-1.12627 6.64603,-3.71564 9.44466,-6.51635 -0.87494,4.17626 -3.18822,8.4947 -5.93103,12.85547 2.35277,-2.2886 4.49014,-4.95995 6.53562,-7.79393 -0.9993,4.25662 -0.71902,8.60049 -0.0952,12.96689 0.0874,2.43838 0.12175,5.10078 -0.69851,7.82333 -2.45163,8.13766 -5.50969,16.1839 -8.51342,24.4122 -0.21713,0.59434 -0.39744,0.99108 -0.25107,1.45844 l 5.23814,16.77092 -2.54652,4.45819 -7.48993,-29.48978 c -0.598625,-2.35697 -1.411279,-7.56406 -4.064257,-9.31113 -4.99352,-3.28839 -9.515725,-8.2507 -12.417256,-23.12316 2.400751,1.72043 4.777234,4.30591 7.151636,6.95477 -1.273478,-5.71928 -4.633654,-8.35009 -8.062955,-10.87762 l -0.03494,-2.89539 c 4.946807,3.16372 7.860153,8.40905 10.652568,13.77728 -1.480632,-6.49902 -3.978985,-12.82739 -11.2704,-18.35395 -1.042948,-4.049987 -1.876661,-8.213117 -2.092783,-12.18474 3.583376,3.435343 7.143636,7.196973 10.691998,11.12604 C 88.470486,97.383093 85.965119,91.89582 78.772343,85.936666 76.952978,82.448227 77.3447,78.654651 78.089848,74.810467 c 2.66209,1.81125 5.341371,5.392697 8.019925,8.901467 -0.08625,-3.952466 -3.358165,-8.168411 -7.275935,-12.438912 -0.02316,-0.951311 0.638026,-1.582541 -0.123601,-2.873816 -1.507553,-2.55569 -2.722976,-4.748808 -0.15121,-8.105669 1.512356,-1.974057 0.322619,-3.91358 0.05249,-5.747941 -0.237955,-1.615731 0.367955,-3.274073 1.163156,-4.689074 3.564737,3.950838 6.256801,8.796758 8.79085,13.806457 -0.273111,-5.12208 -2.525846,-10.964687 -9.181838,-18.409936 l 1.074896,-3.253779 c 2.040896,1.344142 3.670701,3.074801 5.418519,4.693316 -1.525675,-3.05752 -3.720266,-6.230799 -5.985375,-9.414651 0.53377,-4.571574 2.095924,-9.260759 3.323594,-13.912185 2.139234,2.818826 4.294226,5.62402 6.844344,8.094943 -0.813832,-3.764806 -2.729407,-7.371851 -5.686115,-10.82868 1.757738,-5.101214 4.096119,-8.286804 6.842025,-10.129213 2.643772,3.251392 3.603654,6.791503 4.097708,10.412101 1.343249,-3.731799 1.298245,-7.780258 -1.102312,-12.3677767 2.738947,-1.830792 5.37137,-3.02631 7.649891,-2.144679 z M 98.05066,26.338796 c -0.42987,-0.08382 -1.008212,0.434342 -1.101637,0.992417 -5.255483,31.382035 -6.152568,65.98631 2.49142,107.633317 l 2.707557,1.5307 C 94.337981,99.537083 93.668216,63.402645 98.485509,27.890447 98.628893,26.833281 98.38498,26.403992 98.05066,26.338796 Z"
                style="fill: #999999;fill-opacity:1;fill-rule:evenodd;stroke:none;stroke-width:0.0468355;stroke-linecap:butt;stroke-linejoin:miter;stroke-miterlimit:4;stroke-dasharray:none;stroke-opacity:1" />
    </g>
</svg>
