<?xml version="1.0" encoding="UTF-8" standalone="no"?>
<svg
        xmlnsDc="http://purl.org/dc/elements/1.1/"
        xmlnsCc="http://creativecommons.org/ns#"
        xmlnsRdf="http://www.w3.org/1999/02/22-rdf-syntax-ns#"
        xmlnsSvg="http://www.w3.org/2000/svg"
        xmlns="http://www.w3.org/2000/svg"
        xmlnsXlink="http://www.w3.org/1999/xlink"
        xmlnsSodipodi="http://sodipodi.sourceforge.net/DTD/sodipodi-0.dtd"
        xmlnsInkscape="http://www.inkscape.org/namespaces/inkscape"
        sodipodiDocname="feather8.svg"
        inkscapeVersion="1.0rc1 (09960d6, 2020-04-09)"
        id="svg856"
        version="1.1"
        viewBox="0 0 210 297"
        height="297mm"
        width="210mm">
    <g
            id="layer1"
            inkscapeGroupmode="layer"
            inkscapeLabel="Layer 1">
        <path
                style="fill: #999999;fill-opacity:1;fill-rule:evenodd;stroke:none;stroke-width:0.0446101;stroke-linecap:butt;stroke-linejoin:miter;stroke-miterlimit:4;stroke-dasharray:none;stroke-opacity:1"
                d="m 9.4046205,106.37497 c 1.0371365,-1.04808 2.2523275,-1.85241 3.5764245,-2.50924 l 1.36327,4.08976 c 0.729352,-0.25581 1.396348,-1.31969 1.995896,-3.2633 8.145077,-0.68979 11.964144,4.38849 14.702902,10.90713 -1.790869,3.50791 -3.465446,6.74533 -4.868302,9.34787 1.493754,-1.10493 3.245029,-2.72471 5.258121,-4.8683 1.227968,3.54462 1.954212,7.53431 5.404031,9.10398 -1.708427,8.54344 -2.85643,16.89977 1.947953,23.27227 -0.01563,-5.42717 -0.386812,-10.60533 0.827554,-16.89479 6.093687,12.76896 16.074766,21.9973 27.99574,29.45698 -0.28531,4.56729 -0.05531,8.56224 0.827523,11.83157 0.760364,-5.19538 2.011272,-9.67719 5.598942,-10.76013 -0.114396,6.80951 0.967898,13.35036 7.157095,18.74477 -1.365793,-4.02569 -2.626892,-8.0167 -3.797949,-11.97747 1.932595,1.15182 4.270495,3.58 5.842828,3.06731 8.284077,-2.70114 12.471797,-0.8096 15.141718,3.60304 -7.187251,-4.68049 -13.262781,3.92687 -4.332598,10.46724 -0.466243,-1.37801 -0.689747,-2.67462 -0.973422,-3.99179 1.346574,2.68724 2.38565,6.02212 5.209128,6.57239 l 15.239695,2.9704 2.09283,2.87242 -15.920283,-3.45713 c -1.02581,-0.22273 -1.721977,-0.0203 -2.093863,0.43881 -9.166351,11.31581 -17.180516,11.63769 -25.220233,8.56933 3.436777,-1.61672 6.964299,-3.1883 9.396881,-5.3071 -18.299698,4.22866 -31.6478,-0.0324 -42.699719,-8.22852 4.063923,-0.0971 7.910488,-0.55834 11.198938,-1.94797 -21.540678,-1.68482 -26.787804,-9.75005 -30.284531,-18.50087 3.242884,1.44227 4.295485,2.64111 10.663218,4.43058 -5.554912,-5.75983 -11.296459,-10.34132 -17.625414,-11.19895 6.207142,-1.62593 12.007659,3.83058 16.213168,4.43165 -9.598937,-6.61342 -18.070149,-13.51215 -22.1039242,-20.255 3.3963122,2.20581 6.7283342,4.66771 10.3703292,5.89075 -8.8275143,-9.19702 -11.178015,-18.52562 -13.8263864,-27.84874 2.3896555,3.72917 4.722268,7.73502 7.7396744,8.32544 -4.9854495,-6.66533 -6.6289821,-13.71856 -6.0366587,-21.03248 1.3783568,1.86977 2.6551843,4.04585 4.5285234,4.43062 l -3.0193911,-6.81735 c 0.6125263,-1.62714 1.4729721,-2.91728 2.5102986,-3.96515 z m 7.7396885,21.72795 c -0.183884,0.1 -0.254463,0.50355 -0.171467,0.98303 5.904456,34.11652 27.517158,57.68433 73.615788,64.26686 l -3.066249,-2.48262 c -29.28763,-5.77542 -41.273714,-13.32737 -42.116078,-36.56507 -0.04034,-1.1126 -0.277665,-1.30093 -0.535677,-0.43778 -2.114759,7.07301 -0.775407,14.79194 5.405105,23.41926 -16.061925,-10.81367 -27.378473,-26.37399 -32.280417,-48.34766 -0.369772,-0.73346 -0.667069,-0.93605 -0.851005,-0.83602 z"
                id="path4152-9-5"
                inkscapeConnector-curvature="0" />
    </g>
</svg>
