<?xml version="1.0" encoding="UTF-8" standalone="no"?>
<svg
        xmlnsDc="http://purl.org/dc/elements/1.1/"
        xmlnsCc="http://creativecommons.org/ns#"
        xmlnsRdf="http://www.w3.org/1999/02/22-rdf-syntax-ns#"
        xmlnsSvg="http://www.w3.org/2000/svg"
        xmlns="http://www.w3.org/2000/svg"
        xmlnsXlink="http://www.w3.org/1999/xlink"
        xmlnsSodipodi="http://sodipodi.sourceforge.net/DTD/sodipodi-0.dtd"
        xmlnsInkscape="http://www.inkscape.org/namespaces/inkscape"
        sodipodiDocname="feather4.svg"
        inkscapeVersion="1.0rc1 (09960d6, 2020-04-09)"
        id="svg856"
        version="1.1"
        viewBox="0 0 210 297"
        height="297mm"
        width="210mm">
    <g
            id="layer1"
            inkscapeGroupmode="layer"
            inkscapeLabel="Layer 1">
        <path
                inkscapeConnector-curvature="0"
                id="path4152-9"
                d="m 28.627883,57.047166 c 1.27306,-0.743937 2.65502,-1.206345 4.104,-1.498095 l 0.25831,4.303245 c 0.77071,-0.05833 1.69033,-0.913324 2.77249,-2.635525 8.04607,1.44181 10.42065,7.3355 11.37894,14.340859 -2.63776,2.924863 -5.09318,5.618579 -7.12182,7.769347 1.72883,-0.680658 3.83966,-1.791989 6.33896,-3.341515 0.26871,3.741669 -0.0624,7.783378 2.86361,10.19243 -3.86142,7.810167 -7.13308,15.584628 -4.14173,22.983468 1.38956,-5.24629 2.37123,-10.344077 5.17205,-16.104931 2.5812,13.911031 9.83371,25.408211 19.41778,35.699081 -1.45769,4.33781 -2.26949,8.25616 -2.26291,11.6426 2.07912,-4.82156 4.44738,-8.8269 8.19309,-8.94438 -1.87293,6.54787 -2.52041,13.14596 2.06172,19.95844 -0.27733,-4.24201 -0.46251,-8.42342 -0.56854,-12.55233 1.56863,1.61277 3.19841,4.5633 4.84986,4.47503 8.70091,-0.46502 12.25637,2.44593 13.69324,7.39924 -5.73095,-6.38121 -13.82721,0.3604 -6.89409,8.98922 -0.0937,-1.45173 0.026,-2.76201 0.0929,-4.10772 0.60518,2.9442 0.74572,6.43438 3.33057,7.69667 l 13.951647,6.81351 1.27808,3.3162 -14.483067,-7.4598 c -0.93321,-0.48064 -1.65804,-0.46532 -2.13609,-0.11807 -11.78276,8.5578 -19.60716,6.7945 -26.57878,1.74986 3.73811,-0.67213 7.55219,-1.27717 10.45028,-2.69418 -18.77062,-0.65173 -30.56104,-8.22239 -39.11507,-18.99964 3.95059,0.95799 7.78545,1.50807 11.32151,1.01691 -20.37063,-7.20255 -23.35153,-16.35101 -24.46423,-25.70868 2.7591,2.23245 3.46555,3.66287 9.15316,7.03946 -3.87488,-7.00128 -8.23501,-12.91269 -14.12634,-15.37914 6.41646,0.036 10.60708,6.80786 14.51372,8.47692 -7.56018,-8.87246 -13.95722,-17.72864 -16.10837,-25.285737 2.70968,3.00967 5.29098,6.250077 8.49233,8.374067 -6.14636,-11.168375 -6.00235,-20.787461 -6.14748,-30.478366 1.34305,4.220608 2.55939,8.693683 5.32117,10.044939 -3.09046,-7.728545 -2.85248,-14.96683 -0.38736,-21.878221 0.84746,2.162798 1.51757,4.595196 3.22749,5.451714 l -1.15205,-7.366522 c 1.01279,-1.413164 2.17783,-2.436645 3.45102,-3.180333 z m 1.85236,22.990769 c -0.2035,0.04904 -0.37612,0.42053 -0.42005,0.905155 -3.12674,34.48221 11.64973,62.84073 54.4739,81.13017 l -2.31922,-3.19163 c -26.79489,-13.15882 -36.41797,-23.55566 -31.21727,-46.21956 0.249,-1.08514 0.0685,-1.32846 -0.40412,-0.5615 -3.87333,6.28463 -4.57742,14.08719 -0.84042,24.02019 -12.71584,-14.60235 -19.61948,-32.56138 -18.66719,-55.055036 -0.16734,-0.804162 -0.40207,-1.076811 -0.60563,-1.027789 z"
                style="fill: #999999;fill-opacity:1;fill-rule:evenodd;stroke:none;stroke-width:0.0446101;stroke-linecap:butt;stroke-linejoin:miter;stroke-miterlimit:4;stroke-dasharray:none;stroke-opacity:1" />
    </g>
</svg>
