<?xml version="1.0" encoding="UTF-8" standalone="no"?>
<svg
        xmlnsDc="http://purl.org/dc/elements/1.1/"
        xmlnsCc="http://creativecommons.org/ns#"
        xmlnsRdf="http://www.w3.org/1999/02/22-rdf-syntax-ns#"
        xmlnsSvg="http://www.w3.org/2000/svg"
        xmlns="http://www.w3.org/2000/svg"
        xmlnsXlink="http://www.w3.org/1999/xlink"
        xmlnsSodipodi="http://sodipodi.sourceforge.net/DTD/sodipodi-0.dtd"
        xmlnsInkscape="http://www.inkscape.org/namespaces/inkscape"
        sodipodiDocname="feather7.svg"
        inkscapeVersion="1.0rc1 (09960d6, 2020-04-09)"
        id="svg856"
        version="1.1"
        viewBox="0 0 210 297"
        height="297mm"
        width="210mm">
    <g
            id="layer1"
            inkscapeGroupmode="layer"
            inkscapeLabel="Layer 1">
        <path
                inkscapeConnector-curvature="0"
                id="path4152-0"
                d="m 193.83057,104.94917 c -1.03713,-1.04808 -2.25233,-1.85241 -3.57643,-2.50925 l -1.36326,4.08977 c -0.72936,-0.25582 -1.39636,-1.3197 -1.99589,-3.2633 -8.14508,-0.68979 -11.96415,4.38849 -14.70291,10.90713 1.79088,3.5079 3.46545,6.74533 4.86831,9.34786 -1.49376,-1.10492 -3.24503,-2.7247 -5.25813,-4.86828 -1.22796,3.54461 -1.95421,7.5343 -5.40402,9.10396 1.70843,8.54345 2.85642,16.89977 -1.94796,23.27227 0.0156,-5.42717 0.38681,-10.60532 -0.82755,-16.89479 -6.09369,12.76897 -16.07477,21.99732 -27.99574,29.457 0.28531,4.56728 0.0553,8.56221 -0.82752,11.83156 -0.76037,-5.19538 -2.01127,-9.6772 -5.59894,-10.76014 0.11439,6.80952 -0.9679,13.35036 -7.1571,18.74477 1.36579,-4.02569 2.62689,-8.01669 3.79795,-11.97747 -1.9326,1.15183 -4.2705,3.58 -5.84283,3.06731 -8.28408,-2.70113 -12.4718,-0.80959 -15.14172,3.60305 7.18726,-4.6805 13.26278,3.92686 4.3326,10.46725 0.46624,-1.37802 0.68975,-2.67463 0.97342,-3.9918 -1.34657,2.68725 -2.38565,6.02212 -5.20912,6.57239 l -15.239742,2.9704 -2.092826,2.87241 15.920318,-3.45711 c 1.02581,-0.22273 1.72198,-0.0203 2.09387,0.4388 9.16635,11.31581 17.18051,11.6377 25.22023,8.56934 -3.43678,-1.61672 -6.9643,-3.1883 -9.39689,-5.30711 18.2997,4.22867 31.64781,-0.0324 42.69972,-8.22853 -4.06392,-0.0971 -7.91048,-0.55834 -11.19893,-1.94796 21.54067,-1.68482 26.78779,-9.75005 30.28452,-18.50087 -3.24288,1.44226 -4.29548,2.64111 -10.66322,4.43057 5.55492,-5.75982 11.29647,-10.34132 17.62541,-11.19895 -6.20713,-1.62593 -12.00765,3.83058 -16.21315,4.43166 9.59893,-6.61343 18.07014,-13.51216 22.10392,-20.25501 -3.39631,2.20581 -6.72833,4.66771 -10.37034,5.89076 8.82753,-9.19702 11.17803,-18.52562 13.82639,-27.84874 -2.38965,3.72918 -4.72226,7.73502 -7.73968,8.32543 4.98546,-6.66532 6.62899,-13.71855 6.03666,-21.03247 -1.37835,1.86976 -2.65518,4.04584 -4.52852,4.43061 l 3.0194,-6.81734 c -0.61253,-1.62714 -1.47297,-2.91728 -2.5103,-3.96516 z m -7.73968,21.72795 c 0.18388,0.1 0.25446,0.50354 0.17146,0.98303 -5.90445,34.11652 -27.51715,57.68432 -73.61578,64.26686 l 3.06625,-2.48262 c 29.28763,-5.77542 41.27371,-13.32736 42.11608,-36.56508 0.0403,-1.1126 0.27766,-1.30091 0.53567,-0.43776 2.11476,7.073 0.77541,14.79192 -5.4051,23.41926 16.06192,-10.8137 27.37847,-26.37401 32.28041,-48.34767 0.36977,-0.73345 0.66707,-0.93606 0.85101,-0.83602 z"
                style="fill: #999999;fill-opacity:1;fill-rule:evenodd;stroke:none;stroke-width:0.0446101;stroke-linecap:butt;stroke-linejoin:miter;stroke-miterlimit:4;stroke-dasharray:none;stroke-opacity:1" />
    </g>
</svg>
