<?xml version="1.0" encoding="UTF-8" standalone="no"?>
<svg
        xmlnsDc="http://purl.org/dc/elements/1.1/"
        xmlnsCc="http://creativecommons.org/ns#"
        xmlnsRdf="http://www.w3.org/1999/02/22-rdf-syntax-ns#"
        xmlnsSvg="http://www.w3.org/2000/svg"
        xmlns="http://www.w3.org/2000/svg"
        xmlnsXlink="http://www.w3.org/1999/xlink"
        xmlnsSodipodi="http://sodipodi.sourceforge.net/DTD/sodipodi-0.dtd"
        xmlnsInkscape="http://www.inkscape.org/namespaces/inkscape"
        sodipodiDocname="feather5.svg"
        inkscapeVersion="1.0rc1 (09960d6, 2020-04-09)"
        id="svg856"
        version="1.1"
        viewBox="0 0 210 297"
        height="297mm"
        width="210mm">
    <g
            id="layer1"
            inkscapeGroupmode="layer"
            inkscapeLabel="Layer 1">
        <path
                sodipodiNodetypes="scccccccccscccccccccccccsscccssccccccccccccsssccccccccccccscsccsc"
                inkscapeConnector-curvature="0"
                id="path4147-8"
                d="m 133.2867,16.17345 c -2.42906,0.261853 -5.05469,2.621594 -8.01432,8.531709 0.75679,1.883305 1.81983,3.982516 1.69022,5.239693 -1.03757,-0.33496 -1.75041,-1.398264 -2.51481,-2.345187 l -3.42206,6.045703 c 1.06524,2.178852 2.61273,4.522576 2.50184,6.297313 l -2.49705,-2.141974 c -0.55498,3.777813 -1.38206,7.271778 -3.429,9.486165 2.40779,4.493103 4.33678,8.8423 3.75732,12.446502 -1.76505,-3.818516 -3.63901,-7.235235 -5.9676,-8.970423 -0.8306,4.458724 -3.4727,8.22283 -3.83238,11.31678 -0.35552,3.058273 0.43248,5.796813 0.70534,8.66094 -2.31706,2.391976 -5.40311,4.718114 -5.36978,6.06372 1.91247,5.283955 5.46546,10.804852 8.45009,16.244081 -3.14899,-2.713804 -5.76276,-6.063567 -8.36641,-9.427262 0.23688,3.398325 0.26109,6.729633 -0.68612,9.757327 -0.80853,-2.658941 -1.90833,-3.596202 -2.97779,-4.715904 -0.35218,2.559947 -0.62767,5.104666 -1.62834,7.787286 -1.854857,1.08589 -2.8765,2.30342 -3.066191,3.654121 -0.646283,5.58112 1.694281,10.90103 4.748761,16.15838 -3.31106,-2.05319 -5.457917,-5.30915 -7.436306,-8.73877 -0.235769,4.26041 0.881005,9.03042 2.401688,13.95249 -1.680255,-2.81956 -3.053393,-5.95307 -4.295693,-9.21989 -0.13645,4.37021 -1.531469,8.49352 -3.264154,12.54968 -0.715506,2.33268 -1.437774,4.89546 -1.350147,7.73753 0.261906,8.49491 1.133245,17.05847 1.904986,25.78382 0.05594,0.63028 0.127385,1.06017 -0.134566,1.47375 l -9.400294,14.84374 1.30589,4.96537 14.867233,-26.5464 c 1.188262,-2.12172 3.320923,-6.94106 6.335683,-7.94196 5.67446,-1.88392 11.32692,-5.50671 17.97886,-19.12143 -2.76424,1.04044 -5.7289,2.92275 -8.70799,4.86681 2.71036,-5.1948 6.63694,-6.86628 10.60356,-8.42012 l 0.78314,-2.78769 c -5.59708,1.77559 -9.76874,6.08816 -13.85542,10.55073 3.11229,-5.89434 7.16339,-11.36045 15.63673,-14.81154 2.05565,-3.64206 3.93843,-7.44755 5.17513,-11.22792 -4.3504,2.39085 -8.76294,5.10284 -13.20732,7.97965 3.96383,-4.63059 7.80405,-9.28245 16.29406,-13.176914 2.66027,-2.898687 3.26374,-6.664385 3.53891,-10.570441 -3.04015,1.060532 -6.5551,3.826495 -10.0505,6.522444 1.10627,-3.795467 5.35786,-7.020921 10.24745,-10.131913 0.26856,-0.912902 -0.20671,-1.693752 0.86316,-2.743904 2.11766,-2.078425 3.85927,-3.882238 2.24397,-7.790339 -0.9499,-2.298216 0.70124,-3.86373 1.43698,-5.565666 0.64803,-1.499089 0.49202,-3.257733 0.0901,-4.830344 -4.46582,2.893595 -8.32039,6.877639 -12.06468,11.060771 1.58949,-4.876857 5.27764,-9.937334 13.6338,-15.406194 l -0.19613,-3.421113 c -2.31923,0.770118 -4.34142,2.019983 -6.44861,3.130978 2.26504,-2.558461 5.20617,-5.055613 8.21812,-7.544725 0.66763,-4.553949 0.37236,-9.487672 0.39042,-14.298346 -2.79592,2.169103 -5.60352,4.320956 -8.70627,6.047667 1.76051,-3.425889 4.54437,-6.41424 8.29503,-8.988025 -0.37753,-5.382336 -1.81177,-9.064582 -3.98725,-11.554925 -3.39521,2.456359 -5.23864,5.627404 -6.65293,8.99676 -0.33163,-3.952299 0.75963,-7.851161 4.26576,-11.66106 -2.17177,-2.477298 -4.40508,-4.313403 -6.83415,-4.05153 z m -1.4799,20.243162 c 0.4369,0.0303 0.86142,0.680489 0.80725,1.243727 -3.04588,31.672938 -11.13561,65.330271 -30.2641,103.320961 l -3.01148,0.77778 c 17.10939,-33.67745 27.1086,-68.407281 31.6467,-103.956232 0.1351,-1.058253 0.48182,-1.409789 0.82163,-1.386236 z"
                style="fill: #999999;fill-opacity:1;fill-rule:evenodd;stroke:none;stroke-width:0.0468355;stroke-linecap:butt;stroke-linejoin:miter;stroke-miterlimit:4;stroke-dasharray:none;stroke-opacity:1" />
    </g>
</svg>
